<svg width="46" height="45" viewBox="0 0 46 45" fill="none" xmlns="http://www.w3.org/2000/svg">
<path d="M20.6406 17.5413C20.5576 13.8764 23.1965 10.3576 24.0511 9.31648C24.1876 9.15024 24.4337 9.15516 24.5623 9.3275C25.3421 10.3718 27.6914 13.8262 27.6914 17.5413C27.6914 21.2708 25.3239 24.3371 24.5533 25.2363C24.4245 25.3867 24.2013 25.3881 24.0693 25.2406C23.261 24.3367 20.7237 21.214 20.6406 17.5413Z" fill="black"/>
<path d="M30.0403 23.3656C32.5247 22.2236 35.6948 22.9333 36.7866 23.2363C36.9938 23.2938 37.0872 23.5231 36.9785 23.7087C36.4244 24.6547 34.7308 27.2373 32.1901 28.3362C29.6378 29.44 26.8458 28.7805 25.8899 28.4949C25.7002 28.4382 25.6087 28.2336 25.6934 28.0546C26.1299 27.132 27.5486 24.5109 30.0403 23.3656Z" fill="black"/>
<path d="M18.8124 23.3946C16.328 22.2526 13.1579 22.9623 12.0661 23.2653C11.8588 23.3228 11.7655 23.5521 11.8742 23.7376C12.4283 24.6837 14.1219 27.2663 16.6626 28.3651C19.2149 29.469 22.0069 28.8095 22.9628 28.5239C23.1525 28.4672 23.244 28.2625 23.1593 28.0836C22.7228 27.161 21.3041 24.5399 18.8124 23.3946Z" fill="black"/>
<path d="M41.2007 31.0297C40.7346 30.6384 39.6629 30.8657 38.6307 31.4501C37.5985 32.0345 33.5222 35.3322 29.3703 36.8566C28.2852 37.255 27.6821 37.5308 26.5452 37.7394C24.8496 38.0507 23.8213 38.2533 22.1308 37.9152C21.0617 37.7014 19.4822 37.2089 19.4822 37.2089C19.4822 37.2089 14.8913 35.7978 18.9525 35.7978C23.0137 35.7978 23.046 35.7578 24.148 35.5512C25.25 35.3446 26.0721 34.9419 26.6854 34.4838C27.2987 34.0257 28.0117 33.3604 28.3649 32.8314C28.718 32.3023 28.8406 31.9133 28.664 31.736C28.5611 31.6326 23.4793 31.9375 20.1903 31.9375C16.9014 31.9375 13.1659 32.0989 12.4688 32.2016C10.7979 32.4478 10.1151 32.7042 9.1251 33.2151C6.97408 34.3253 6.00122 35.5972 4.29695 37.7394C2.37706 40.1527 0.368485 44.3515 0.765481 44.8024C1.16248 45.2532 4.02453 44.2114 8.35813 43.9195C15.4529 43.4416 21.6896 45.3728 26.5452 43.9473C31.4008 42.5217 40.671 33.502 41.2007 32.7954C41.7305 32.0888 41.6669 31.421 41.2007 31.0297Z" fill="black"/>
<path d="M40.9784 13.3827C40.8587 13.6752 40.4443 13.6752 40.3247 13.3827L40.0299 12.6621C39.7767 11.8529 39.3319 11.117 38.7332 10.5173C38.1346 9.91762 37.4001 9.47196 36.5922 9.21836L35.8315 8.93507C35.5223 8.81991 35.5259 8.38126 35.837 8.2712L36.5922 8.00401C37.4021 7.75629 38.139 7.31337 38.7383 6.71407C39.3377 6.11476 39.7811 5.37736 40.0299 4.56648L40.3245 3.84344C40.4439 3.55025 40.8591 3.55025 40.9785 3.84344L41.2731 4.56648C41.5213 5.37666 41.9638 6.1136 42.562 6.71285C43.1602 7.3121 43.8958 7.75541 44.7046 8.00401L45.4768 8.2703C45.7915 8.3788 45.7951 8.82255 45.4822 8.93611L44.7046 9.21836C43.8964 9.46997 43.1616 9.91504 42.5637 10.5151C41.9658 11.1151 41.5228 11.852 41.2731 12.6621L40.9784 13.3827Z" fill="black"/>
<path d="M31.3484 5.09139C31.2287 5.38396 30.8144 5.38396 30.6947 5.09139L30.6603 5.00747C30.5133 4.53726 30.2548 4.1097 29.907 3.76127C29.5592 3.41284 29.1324 3.1539 28.663 3.00655L28.6029 2.98418C28.2937 2.86902 28.2973 2.43037 28.6084 2.32031L28.663 2.30099C29.1336 2.15706 29.5617 1.89971 29.9099 1.5515C30.2582 1.20329 30.5158 0.77484 30.6603 0.303695L30.6945 0.219897C30.8139 -0.073299 31.2291 -0.073299 31.3486 0.219897L31.3827 0.303695C31.5269 0.774433 31.784 1.20261 32.1316 1.55079C32.4791 1.89897 32.9066 2.15655 33.3765 2.30099L33.4299 2.31941C33.7445 2.42791 33.7481 2.87165 33.4352 2.98522L33.3765 3.00655C32.9069 3.15274 32.4799 3.41134 32.1325 3.75998C31.7852 4.10862 31.5278 4.53679 31.3827 5.00747L31.3484 5.09139Z" fill="black"/>
</svg>
